<svg xmlns="http://www.w3.org/2000/svg" version="1.1" xmlns:xlink="http://www.w3.org/1999/xlink" xmlns:svgjs="http://svgjs.dev/svgjs" width="1000" height="1857" viewBox="0 0 1000 1857"><g transform="matrix(1,0,0,1,1.0041273396255406,0.7518218623481516)"><svg viewBox="0 0 133 247" data-background-color="#ffffff" preserveAspectRatio="xMidYMid meet" height="1857" width="1000" xmlns="http://www.w3.org/2000/svg" xmlns:xlink="http://www.w3.org/1999/xlink"><g id="tight-bounds" transform="matrix(1,0,0,1,-0.13354893617020025,-0.09999999999999432)"><svg viewBox="0 0 133.26709787234043 247.2" height="247.2" width="133.26709787234043"><g><svg></svg></g><g><svg viewBox="0 0 133.26709787234043 247.2" height="247.2" width="133.26709787234043"><g transform="matrix(1,0,0,1,0,47.215199999999996)"><svg viewBox="0 0 133.26709787234043 152.7696" height="152.7696" width="133.26709787234043"><g><svg viewBox="0 0 133.26709787234043 152.7696" height="152.7696" width="133.26709787234043"><g><svg viewBox="0 0 133.26709787234043 152.7696" height="152.7696" width="133.26709787234043"><g><svg viewBox="0 0 133.26709787234043 152.7696" height="152.7696" width="133.26709787234043"><g id="textblocktransform"><svg viewBox="0 0 133.26709787234043 152.7696" height="152.7696" width="133.26709787234043" id="textblock"><g><svg viewBox="0 0 133.26709787234043 152.7696" height="152.7696" width="133.26709787234043"><g transform="matrix(1,0,0,1,0,0)"><svg width="133.26709787234043" viewBox="2.5 -23 20.5 23.5" height="152.7696" data-palette-color="#ff4136"><path d="M12.75 0.5L12.75 0.5Q9.7 0.5 7.4-1.05 5.1-2.6 3.8-5.25 2.5-7.9 2.5-11.25L2.5-11.25Q2.5-14.6 3.8-17.25 5.1-19.9 7.4-21.45 9.7-23 12.75-23L12.75-23Q15.8-23 18.1-21.45 20.4-19.9 21.7-17.25 23-14.6 23-11.25L23-11.25Q23-7.9 21.7-5.25 20.4-2.6 18.1-1.05 15.8 0.5 12.75 0.5ZM13.45-0.65L13.45-0.65Q15.75-0.65 17.32-2.02 18.9-3.4 19.7-5.6 20.5-7.8 20.5-10.25L20.5-10.25Q20.5-13.5 19.55-16.13 18.6-18.75 16.73-20.33 14.85-21.9 12.15-21.9L12.15-21.9Q9.9-21.9 8.3-20.63 6.7-19.35 5.85-17.18 5-15 5-12.3L5-12.3Q5-9.05 6.03-6.4 7.05-3.75 8.93-2.2 10.8-0.65 13.45-0.65Z" opacity="1" transform="matrix(1,0,0,1,0,0)" fill="#ff4136" class="wordmark-text-0" data-fill-palette-color="primary" id="text-0"></path></svg></g></svg></g></svg></g></svg></g><g></g></svg></g></svg></g></svg></g><path d="M0 41.215L0 1 133.267 1 133.267 41.215 119.49 41.215 119.49 14.777 13.777 14.777 13.777 41.215 0 41.215M0 205.985L0 246.2 133.267 246.2 133.267 205.985 119.49 205.985 119.49 232.423 13.777 232.423 13.777 205.985 0 205.985" fill="#ff4136" stroke="transparent" data-fill-palette-color="primary"></path></svg></g><defs></defs></svg><rect width="133.26709787234043" height="247.2" fill="none" stroke="none" visibility="hidden"></rect></g></svg></g></svg>